<svg id="Capa_1" enable-background="new 0 0 512 512" height="512" viewBox="0 0 512 512" width="512" xmlns="http://www.w3.org/2000/svg"><g><g><path d="m277.54.91c-115.679 27.238-201.793 131.096-201.793 255.09s86.114 227.852 201.793 255.09c131.303-10.941 234.46-120.961 234.46-255.09s-103.157-244.149-234.46-255.09z" fill="#ff9568"/><path d="m80.872 256c0-127.624 93.395-233.422 215.564-252.81-13.172-2.091-26.675-3.19-40.436-3.19-141.385 0-256 114.615-256 256s114.615 256 256 256c13.761 0 27.263-1.099 40.436-3.19-122.169-19.388-215.564-125.186-215.564-252.81z" fill="#ff7c42"/></g><path d="m256 46.546c-115.494 0-209.454 93.961-209.454 209.454s93.96 209.454 209.454 209.454 209.454-93.961 209.454-209.454-93.96-209.454-209.454-209.454zm-20.215 369.027c0 4.432-4.002 7.768-8.37 7.021-34.153-5.842-64.84-21.965-88.754-45.062-3.193-3.084-2.841-8.303.751-10.912l90.877-65.982c2.289-1.662 5.496-.027 5.496 2.801zm0-172.873c0 2.504-1.199 4.856-3.225 6.326l-117.175 85.077c-3.563 2.587-8.594 1.354-10.568-2.582-11.408-22.741-17.84-48.392-17.84-75.52 0-83.453 60.798-152.965 140.425-166.592 4.374-.749 8.384 2.579 8.384 7.017v146.274zm137.555 134.832c-23.914 23.097-54.601 39.22-88.754 45.062-4.369.747-8.37-2.589-8.37-7.021v-112.133c0-2.828 3.208-4.463 5.496-2.801l90.877 65.982c3.592 2.607 3.944 7.826.751 10.911zm23.276-43.429-117.176-85.077c-2.026-1.471-3.225-3.823-3.225-6.326v-146.275c0-4.438 4.009-7.766 8.384-7.017 79.626 13.627 140.424 83.139 140.424 166.592 0 27.128-6.431 52.779-17.84 75.52-1.974 3.936-7.004 5.169-10.567 2.583z" fill="#ffe559"/><g><path d="m157.98 393.612c-6.834-4.882-13.292-10.259-19.319-16.08-2.889-2.79-2.867-7.321-.178-10.092-7.281-11.54-13.463-23.836-18.407-36.743l-4.691 3.406c-3.563 2.587-8.594 1.354-10.568-2.582-11.408-22.741-17.84-48.392-17.84-75.52 0-56.678 28.049-106.917 70.988-137.595 32.227-36.909 77.161-62.44 127.91-69.72-9.761-1.4-19.733-2.14-29.875-2.14-115.494 0-209.454 93.96-209.454 209.454 0 115.493 93.96 209.454 209.454 209.454 10.142 0 20.114-.74 29.875-2.14-50.742-7.279-95.669-32.803-127.895-69.702z" fill="#ffd500"/></g></g></svg>